<?xml version="1.0" encoding="UTF-8"?>
<svg id="Layer_1" data-name="Layer 1" xmlns="http://www.w3.org/2000/svg" width="25" height="24.27" viewBox="0 0 25 24.27">
  <defs>
    <style>
      .cls-1 {
        fill: #fff;
        fill-rule: evenodd;
        stroke-width: 0px;
      }
    </style>
  </defs>
  <path class="cls-1" d="m4.84,0h15.3c2.67,0,4.85,2.1,4.85,4.68v14.92c0,2.57-2.18,4.67-4.85,4.67H4.84c-2.67,0-4.84-2.1-4.84-4.67V4.68C0,2.1,2.17,0,4.84,0h0Zm13.18,5.67c-.69,0-1.26.53-1.26,1.21s.57,1.21,1.26,1.21,1.26-.55,1.26-1.21-.55-1.21-1.26-1.21h0Zm-2.05,6.48c0,1.85-1.56,3.35-3.49,3.35s-3.49-1.5-3.49-3.35,1.56-3.36,3.49-3.36,3.49,1.51,3.49,3.36h0Zm-8.72,0c0,2.78,2.35,5.05,5.24,5.05s5.24-2.27,5.24-5.05-2.35-5.05-5.24-5.05-5.24,2.27-5.24,5.05h0Zm13.7,4.24c0,2.16-1.82,3.92-4.07,3.92h-8.8c-2.24,0-4.07-1.76-4.07-3.92V7.89c0-2.15,1.82-3.92,4.07-3.92h8.8c2.24,0,4.07,1.77,4.07,3.92v8.5ZM2.28,7.89v8.5c0,3.1,2.6,5.61,5.82,5.61h8.8c3.22,0,5.83-2.51,5.83-5.61V7.89c0-3.09-2.61-5.61-5.83-5.61h-8.8c-3.22,0-5.82,2.52-5.82,5.61h0Z"/>
</svg>