<?xml version="1.0" encoding="UTF-8"?>
<svg id="Capa_1" data-name="Capa 1" xmlns="http://www.w3.org/2000/svg" width="25" height="24.07" viewBox="0 0 25 24.07">
  <defs>
    <style>
      .cls-1 {
        fill: #fff;
        stroke-width: 0px;
      }
    </style>
  </defs>
  <path class="cls-1" d="m21.26,0H3.74C1.67,0,0,1.67,0,3.74v16.6c0,2.06,1.67,3.74,3.74,3.74h17.53c2.06,0,3.74-1.67,3.74-3.74V3.74c0-2.06-1.67-3.74-3.74-3.74Zm-5.65,9.67h-.03l-.02,5.46s-.41,4.26-4.88,4.09c0,0-4.08-.23-4.17-4.58,0,0,.22-4.8,5.25-4.37v2.68s-2.06-.74-2.74,1.55c0,0-.35,2.15,1.95,2.43,0,0,1.49.13,2.08-1.47l.06-10.68h2.37s-.09,3.19,3.61,3.6v2.42s-1.83.07-3.47-1.12Z"/>
</svg>