<?xml version="1.0" encoding="UTF-8"?>
<svg id="Camada_1" data-name="Camada 1" xmlns="http://www.w3.org/2000/svg" width="25" height="24.48" viewBox="0 0 25 24.48">
  <defs>
    <style>
      .cls-1 {
        fill: #fff;
        fill-rule: evenodd;
        stroke-width: 0px;
      }
    </style>
  </defs>
  <path class="cls-1" d="m19.09,19.63c-1.77-2.4-3.54-4.81-5.3-7.21-1.78-2.42-3.55-4.83-5.33-7.25-.09-.12-.16-.29-.34-.29-.76,0-1.53,0-2.38,0,.11.17.15.24.2.31,2.13,2.91,4.27,5.82,6.4,8.72,1.45,1.97,2.9,3.94,4.35,5.91.12.16.22.32.46.31.64-.01,1.29,0,1.93,0,.25,0,.32-.07.16-.29-.05-.07-.1-.14-.15-.21Z"/>
  <path class="cls-1" d="m21.2,0H3.8C1.7,0,0,1.69,0,3.73v17.01c0,2.06,1.7,3.73,3.8,3.73h17.4c2.1,0,3.8-1.67,3.8-3.73V3.73c0-2.05-1.7-3.73-3.8-3.73Zm.05,21.28c-1.55,0-3.1,0-4.66,0-.24,0-.35-.13-.47-.3-1.49-2.04-2.99-4.08-4.48-6.13-.35-.48-.34-.48-.74-.05-1.83,2-3.67,3.99-5.49,6-.31.35-.63.53-1.08.47-.23-.03-.47.04-.79-.07.9-.98,1.76-1.92,2.61-2.85,1.39-1.52,2.78-3.04,4.19-4.55.24-.26.22-.42.03-.68-2.2-2.98-4.39-5.97-6.57-8.96-.08-.11-.25-.22-.2-.35.07-.17.27-.08.41-.08,1.4,0,2.8.01,4.19-.02.42-.01.66.15.89.47,1.37,1.89,2.76,3.77,4.14,5.65.33.45.33.44.71.02,1.8-1.97,3.61-3.94,5.41-5.91.13-.14.27-.23.47-.23.36.01.73,0,1.1,0,0,.22-.15.31-.26.43-2.04,2.25-4.09,4.49-6.15,6.72-.22.24-.26.38-.05.67,2.27,3.07,4.52,6.16,6.78,9.24.05.07.09.14.15.21.18.23.07.28-.16.28Z"/>
</svg>