<?xml version="1.0" encoding="UTF-8"?>
<svg id="Camada_1" data-name="Camada 1" xmlns="http://www.w3.org/2000/svg" width="25" height="25" viewBox="0 0 25 25">
  <defs>
    <style>
      .cls-1 {
        fill: #ed3237;
        fill-rule: evenodd;
        stroke-width: 0px;
      }
    </style>
  </defs>
  <path class="cls-1" d="m19.09,19.89c-1.77-2.4-3.54-4.81-5.3-7.21-1.78-2.42-3.55-4.83-5.33-7.25-.09-.12-.16-.29-.34-.29-.76,0-1.53,0-2.38,0,.11.17.15.24.2.31,2.13,2.91,4.27,5.82,6.4,8.72,1.45,1.97,2.9,3.94,4.35,5.91.12.16.22.32.46.31.64-.01,1.29,0,1.93,0,.25,0,.32-.07.16-.29-.05-.07-.1-.14-.15-.21Z"/>
  <path class="cls-1" d="m21.2,0H3.8C1.7,0,0,1.72,0,3.81v17.38c0,2.1,1.7,3.81,3.8,3.81h17.4c2.1,0,3.8-1.71,3.8-3.81V3.81c0-2.09-1.7-3.81-3.8-3.81Zm.05,21.73c-1.55,0-3.1,0-4.66,0-.24,0-.35-.14-.47-.3-1.49-2.09-2.99-4.17-4.48-6.26-.35-.49-.34-.49-.74-.05-1.83,2.04-3.67,4.07-5.49,6.13-.31.36-.63.54-1.08.48-.23-.03-.47.04-.79-.07.9-1.01,1.76-1.96,2.61-2.91,1.39-1.55,2.78-3.11,4.19-4.65.24-.26.22-.43.03-.69-2.2-3.05-4.39-6.1-6.57-9.15-.08-.11-.25-.23-.2-.36.07-.18.27-.08.41-.08,1.4,0,2.8.01,4.19-.02.42-.01.66.15.89.48,1.37,1.93,2.76,3.85,4.14,5.77.33.46.33.45.71.02,1.8-2.01,3.61-4.02,5.41-6.03.13-.15.27-.24.47-.23.36.01.73,0,1.1,0,0,.23-.15.32-.26.44-2.04,2.29-4.09,4.59-6.15,6.87-.22.25-.26.39-.05.68,2.27,3.14,4.52,6.29,6.78,9.44.05.07.09.14.15.21.18.24.07.29-.16.29Z"/>
</svg>